<?xml version="1.0" standalone="no"?>
<!DOCTYPE svg PUBLIC "-//W3C//DTD SVG 20010904//EN"
 "http://www.w3.org/TR/2001/REC-SVG-20010904/DTD/svg10.dtd">
<svg version="1.0" xmlns="http://www.w3.org/2000/svg"
 width="512.000000pt" height="512.000000pt" viewBox="0 0 512.000000 512.000000"
 preserveAspectRatio="xMidYMid meet">

<g transform="translate(0.000000,512.000000) scale(0.100000,-0.100000)"
fill="#000000" stroke="none">
<path d="M2315 3768 c-160 -57 -265 -283 -264 -568 0 -63 6 -151 14 -195 8
-44 15 -80 15 -80 0 0 -73 0 -162 0 -146 0 -170 -2 -228 -23 -259 -94 -414
-351 -397 -662 10 -167 52 -293 151 -445 142 -218 358 -382 575 -436 71 -18
104 -20 205 -16 161 6 259 33 554 151 216 86 360 136 391 136 8 0 11 -24 9
-81 -3 -78 -2 -82 26 -105 l28 -25 280 3 280 3 19 24 c18 22 19 50 19 800 l0
778 -23 21 c-23 21 -30 22 -299 22 -152 0 -284 -3 -293 -6 -29 -12 -45 -60
-45 -139 0 -61 -3 -75 -15 -75 -42 0 -176 34 -220 57 -116 58 -149 121 -200
389 -49 258 -126 408 -236 465 -43 21 -134 25 -184 7z m145 -178 c43 -46 86
-161 115 -310 50 -258 79 -333 166 -425 80 -85 188 -133 357 -158 l77 -12 0
-444 0 -443 -95 -25 c-52 -13 -201 -66 -330 -118 -311 -124 -387 -146 -525
-152 -83 -4 -126 -1 -174 12 -242 63 -482 301 -571 565 -27 83 -37 236 -21
322 34 172 150 308 300 352 69 20 228 20 336 0 161 -29 170 -29 199 -1 43 43
32 96 -28 132 -24 14 -56 193 -56 311 0 170 52 340 121 398 43 37 92 35 129
-4z m1210 -1345 l0 -665 -165 0 -165 0 0 665 0 665 165 0 165 0 0 -665z"/>
</g>
</svg>
