<svg xmlns="http://www.w3.org/2000/svg" xmlns:xlink="http://www.w3.org/1999/xlink" version="1.1" width="256" height="256" viewBox="0 0 256 256" xml:space="preserve">

<defs>
</defs>
<g style="stroke: none; stroke-width: 0; stroke-dasharray: none; stroke-linecap: butt; stroke-linejoin: miter; stroke-miterlimit: 10; fill: none; fill-rule: nonzero; opacity: 1;" transform="translate(1.4065934065934016 1.4065934065934016) scale(2.81 2.81)" >
	<path d="M 54.418 45.403 c -10.11 0 -18.336 -8.225 -18.336 -18.335 v -8.732 C 36.082 8.225 44.308 0 54.418 0 s 18.335 8.225 18.335 18.335 v 8.732 C 72.753 37.178 64.528 45.403 54.418 45.403 z M 54.418 2 C 45.41 2 38.082 9.328 38.082 18.335 v 8.732 c 0 9.007 7.328 16.335 16.336 16.335 c 9.007 0 16.335 -7.328 16.335 -16.335 v -8.732 C 70.753 9.328 63.425 2 54.418 2 z" style="stroke: none; stroke-width: 1; stroke-dasharray: none; stroke-linecap: butt; stroke-linejoin: miter; stroke-miterlimit: 10; fill: rgb(0,0,0); fill-rule: nonzero; opacity: 1;" transform=" matrix(1 0 0 1 0 0) " stroke-linecap="round" />
	<path d="M 82.471 90 H 26.364 c -0.552 0 -1 -0.447 -1 -1 s 0.448 -1 1 -1 H 81.47 V 66.627 c 0 -11.703 -9.521 -21.224 -21.223 -21.224 h -11.66 c -4.788 0 -9.491 1.659 -13.244 4.671 c -0.431 0.344 -1.061 0.276 -1.406 -0.154 c -0.346 -0.431 -0.277 -1.061 0.154 -1.406 c 4.106 -3.295 9.254 -5.11 14.496 -5.11 h 11.66 c 12.805 0 23.223 10.418 23.223 23.224 V 89 C 83.471 89.553 83.023 90 82.471 90 z" style="stroke: none; stroke-width: 1; stroke-dasharray: none; stroke-linecap: butt; stroke-linejoin: miter; stroke-miterlimit: 10; fill: rgb(0,0,0); fill-rule: nonzero; opacity: 1;" transform=" matrix(1 0 0 1 0 0) " stroke-linecap="round" />
	<path d="M 30.117 83.394 H 17.303 c -5.941 0 -10.774 -4.833 -10.774 -10.773 v -6.646 c 0 -5.94 4.833 -10.773 10.774 -10.773 h 12.814 c 0.403 0 0.767 0.242 0.923 0.614 c 1.021 2.445 1.773 4.93 2.238 7.4 h 23.826 c 0.274 0 0.538 0.113 0.727 0.313 l 4.807 5.082 c 0.364 0.386 0.364 0.989 0 1.375 l -4.807 5.082 c -0.188 0.199 -0.452 0.313 -0.727 0.313 H 33.277 c -0.465 2.471 -1.216 4.955 -2.238 7.4 C 30.884 83.151 30.52 83.394 30.117 83.394 z M 17.303 57.2 c -4.838 0 -8.774 3.936 -8.774 8.773 v 6.646 c 0 4.838 3.936 8.773 8.774 8.773 h 12.142 c 0.945 -2.379 1.619 -4.789 2.006 -7.175 c 0.079 -0.484 0.497 -0.84 0.987 -0.84 h 24.235 l 3.861 -4.082 l -3.861 -4.082 H 32.438 c -0.491 0 -0.909 -0.355 -0.987 -0.84 c -0.387 -2.386 -1.061 -4.796 -2.006 -7.175 H 17.303 V 57.2 z" style="stroke: none; stroke-width: 1; stroke-dasharray: none; stroke-linecap: butt; stroke-linejoin: miter; stroke-miterlimit: 10; fill: rgb(0,0,0); fill-rule: nonzero; opacity: 1;" transform=" matrix(1 0 0 1 0 0) " stroke-linecap="round" />
	<circle cx="15.494" cy="69.294" r="2.404" style="stroke: none; stroke-width: 1; stroke-dasharray: none; stroke-linecap: butt; stroke-linejoin: miter; stroke-miterlimit: 10; fill: rgb(0,0,0); fill-rule: nonzero; opacity: 1;" transform="  matrix(1 0 0 1 0 0) "/>
</g>
</svg>